<svg width="32" height="32" viewBox="0 0 32 32" fill="none" xmlns="http://www.w3.org/2000/svg">
<path d="M18.5667 13.3333V13.4333H18.6667H24C24.6807 13.4333 25.3336 13.7037 25.8149 14.1851C26.2962 14.6664 26.5667 15.3193 26.5667 16C26.5667 16.6807 26.2962 17.3336 25.8149 17.8149C25.3338 18.296 24.6813 18.5664 24.0008 18.5667C24.0006 18.5667 24.0003 18.5667 24 18.5667L18.6684 18.472L18.5667 18.4702V18.572V24C18.5667 24.6807 18.2962 25.3336 17.8149 25.8149C17.3336 26.2962 16.6807 26.5667 16 26.5667C15.3193 26.5667 14.6664 26.2962 14.1851 25.8149C13.7039 25.3338 13.4336 24.6813 13.4333 24.0009C13.4333 24.0006 13.4333 24.0003 13.4333 24L13.528 18.5737L13.5298 18.4702L13.4263 18.472L7.99913 18.5667C7.31872 18.5664 6.66623 18.296 6.18509 17.8149C5.70374 17.3336 5.43333 16.6807 5.43333 16C5.43333 15.3193 5.70374 14.6664 6.18509 14.1851C6.66643 13.7037 7.31927 13.4333 7.99999 13.4333H13.428H13.5298L13.528 13.3316L13.4333 7.99914C13.4336 7.31873 13.7039 6.66623 14.1851 6.18509C14.6664 5.70374 15.3193 5.43333 16 5.43333C16.6807 5.43333 17.3336 5.70374 17.8149 6.18509C18.2962 6.66643 18.5667 7.31927 18.5667 7.99999V13.3333Z" fill="white" stroke="white" stroke-width="0.2"/>
</svg>
