<svg width="6" height="7" viewBox="0 0 6 7" fill="none" xmlns="http://www.w3.org/2000/svg">
<g clip-path="url(#clip0_5_260)">
<path d="M3 1C4.38075 1 5.5 2.11925 5.5 3.5C5.5 4.88075 4.38075 6 3 6C1.61925 6 0.5 4.88075 0.5 3.5C0.5 2.11925 1.61925 1 3 1ZM3 2C2.9337 2 2.87011 2.02634 2.82322 2.07322C2.77634 2.12011 2.75 2.1837 2.75 2.25V3.5C2.75001 3.5663 2.77636 3.62988 2.82325 3.67675L3.57325 4.42675C3.6204 4.47229 3.68355 4.49749 3.7491 4.49692C3.81465 4.49635 3.87735 4.47006 3.9237 4.4237C3.97006 4.37735 3.99635 4.31465 3.99692 4.2491C3.99749 4.18355 3.97229 4.1204 3.92675 4.07325L3.25 3.3965V2.25C3.25 2.1837 3.22366 2.12011 3.17678 2.07322C3.12989 2.02634 3.0663 2 3 2Z" fill="#2E2E2E"/>
</g>
<defs>
<clipPath id="clip0_5_260">
<rect width="6" height="6" fill="white" transform="translate(0 0.5)"/>
</clipPath>
</defs>
</svg>
