<svg width="30" height="30" viewBox="0 0 30 30" fill="none" xmlns="http://www.w3.org/2000/svg">
<path d="M11.25 26.25C9.16667 26.25 7.39583 25.5208 5.9375 24.0625C4.47917 22.6042 3.75 20.8333 3.75 18.75V11.25C3.75 9.16667 4.47917 7.39583 5.9375 5.9375C7.39583 4.47917 9.16667 3.75 11.25 3.75H18.75C20.8333 3.75 22.6042 4.47917 24.0625 5.9375C25.5208 7.39583 26.25 9.16667 26.25 11.25V18.75C26.25 20.8333 25.5208 22.6042 24.0625 24.0625C22.6042 25.5208 20.8333 26.25 18.75 26.25H11.25ZM13.75 20L21.25 12.5L19.5 10.75L13.75 16.5L11 13.75L9.25 15.5L13.75 20Z" fill="#A0A0A0"/>
</svg>
