<svg width="30" height="30" viewBox="0 0 30 30" fill="none" xmlns="http://www.w3.org/2000/svg">
<path d="M20 2.5C20.3062 2.50004 20.6017 2.61245 20.8305 2.81589C21.0593 3.01934 21.2054 3.29969 21.2412 3.60375L21.25 3.75V5H22.5C23.4565 4.99995 24.3769 5.36541 25.0728 6.0216C25.7688 6.6778 26.1876 7.57513 26.2438 8.53L26.25 8.75V23.75C26.2501 24.7065 25.8846 25.6269 25.2284 26.3228C24.5722 27.0188 23.6749 27.4376 22.72 27.4938L22.5 27.5H7.5C6.54349 27.5001 5.62311 27.1346 4.92717 26.4784C4.23124 25.8222 3.81237 24.9249 3.75625 23.97L3.75 23.75V8.75C3.74995 7.79349 4.11541 6.87311 4.7716 6.17717C5.4278 5.48124 6.32513 5.06237 7.28 5.00625L7.5 5H8.75V3.75C8.75035 3.4314 8.87235 3.12496 9.09106 2.89329C9.30977 2.66162 9.60869 2.52221 9.92674 2.50353C10.2448 2.48486 10.558 2.58834 10.8023 2.79283C11.0466 2.99732 11.2036 3.28738 11.2413 3.60375L11.25 3.75V5H18.75V3.75C18.75 3.41848 18.8817 3.10054 19.1161 2.86612C19.3505 2.6317 19.6685 2.5 20 2.5ZM23.75 11.25H6.25V23.2812C6.25 24.1625 6.7325 24.8887 7.35375 24.9887L7.5 25H22.5C23.1413 25 23.67 24.3375 23.7412 23.4813L23.75 23.2812V11.25Z" fill="#A0A0A0"/>
<path d="M15 15C15.3062 15 15.6017 15.1124 15.8305 15.3159C16.0592 15.5193 16.2054 15.7997 16.2412 16.1038L16.25 16.25V20C16.2496 20.3186 16.1276 20.625 15.9089 20.8567C15.6902 21.0884 15.3913 21.2278 15.0732 21.2465C14.7552 21.2651 14.442 21.1617 14.1977 20.9572C13.9534 20.7527 13.7964 20.4626 13.7587 20.1463L13.75 20V17.5C13.4314 17.4996 13.1249 17.3777 12.8933 17.1589C12.6616 16.9402 12.5222 16.6413 12.5035 16.3233C12.4849 16.0052 12.5883 15.692 12.7928 15.4477C12.9973 15.2034 13.2874 15.0464 13.6037 15.0087L13.75 15H15Z" fill="#A0A0A0"/>
</svg>
