<svg width="30" height="30" viewBox="0 0 30 30" fill="none" xmlns="http://www.w3.org/2000/svg">
<path d="M5.41543 6.25H13.37C13.7919 6.25 14.1966 6.43437 14.4949 6.76256C14.7933 7.09075 14.9609 7.53587 14.9609 8C14.9609 8.46413 14.7933 8.90925 14.4949 9.23744C14.1966 9.56563 13.7919 9.75 13.37 9.75H5.41543C4.9935 9.75 4.58884 9.56563 4.29049 9.23744C3.99214 8.90925 3.82452 8.46413 3.82452 8C3.82452 7.53587 3.99214 7.09075 4.29049 6.76256C4.58884 6.43437 4.9935 6.25 5.41543 6.25ZM5.5518 20.25H13.5063C13.9283 20.25 14.3329 20.4344 14.6313 20.7626C14.9296 21.0908 15.0972 21.5359 15.0972 22C15.0972 22.4641 14.9296 22.9092 14.6313 23.2374C14.3329 23.5656 13.9283 23.75 13.5063 23.75H5.5518C5.12986 23.75 4.72521 23.5656 4.42685 23.2374C4.1285 22.9092 3.96089 22.4641 3.96089 22C3.96089 21.5359 4.1285 21.0908 4.42685 20.7626C4.72521 20.4344 5.12986 20.25 5.5518 20.25ZM5.41543 13.25H24.5063C24.9283 13.25 25.3329 13.4344 25.6313 13.7626C25.9296 14.0908 26.0972 14.5359 26.0972 15C26.0972 15.4641 25.9296 15.9092 25.6313 16.2374C25.3329 16.5656 24.9283 16.75 24.5063 16.75H5.41543C4.9935 16.75 4.58884 16.5656 4.29049 16.2374C3.99214 15.9092 3.82452 15.4641 3.82452 15C3.82452 14.5359 3.99214 14.0908 4.29049 13.7626C4.58884 13.4344 4.9935 13.25 5.41543 13.25Z" fill="black"/>
</svg>
