<svg width="12" height="13" viewBox="0 0 12 13" fill="none" xmlns="http://www.w3.org/2000/svg">
<g clip-path="url(#clip0_5_209)">
<rect x="1.80002" y="3" width="8.5" height="5.5" fill="#00CABE"/>
<path d="M1.06067 9.86339V9.37714H11.0093V9.86339H1.06067ZM2.44405 8.89089C2.22038 8.89089 2.03366 8.81585 1.88389 8.66576C1.7338 8.51599 1.65876 8.32911 1.65876 8.10511V3.35445C1.65876 3.13077 1.7338 2.94405 1.88389 2.79429C2.03398 2.64452 2.2207 2.56964 2.44405 2.56964H9.62596C9.84964 2.56964 10.0364 2.64452 10.1861 2.79429C10.3362 2.94438 10.4113 3.13126 10.4113 3.35493V8.1056C10.4113 8.32927 10.3364 8.51599 10.1866 8.66576C10.0368 8.81552 9.84996 8.89057 9.62596 8.89089H2.44405ZM2.44405 8.40464H9.62596C9.70052 8.40464 9.76908 8.37336 9.83165 8.31079C9.89389 8.24855 9.92501 8.17999 9.92501 8.10511V3.35445C9.92501 3.27989 9.89389 3.21149 9.83165 3.14925C9.76908 3.08701 9.70052 3.05589 9.62596 3.05589H2.44405C2.36949 3.05589 2.30093 3.08701 2.23837 3.14925C2.17613 3.21149 2.14501 3.28005 2.14501 3.35493V8.1056C2.14501 8.18016 2.17613 8.24855 2.23837 8.31079C2.30093 8.37336 2.36949 8.40464 2.44405 8.40464Z" fill="#2E2E2E"/>
</g>
<defs>
<clipPath id="clip0_5_209">
<rect width="11.67" height="11.67" fill="white" transform="translate(0.200012 0.399994)"/>
</clipPath>
</defs>
</svg>
