<svg width="17" height="16" viewBox="0 0 17 16" fill="none" xmlns="http://www.w3.org/2000/svg">
<g clip-path="url(#clip0_5_169)">
<rect x="4.05554" y="1.44446" width="8.88889" height="13.3333" fill="#F34E4E"/>
<path d="M11.4167 1.30557C11.6745 1.30557 11.9218 1.408 12.1041 1.59032C12.2865 1.77265 12.3889 2.01994 12.3889 2.27779V13.9445C12.3889 14.2023 12.2865 14.4496 12.1041 14.6319C11.9218 14.8142 11.6745 14.9167 11.4167 14.9167H5.58333C5.32548 14.9167 5.07819 14.8142 4.89587 14.6319C4.71354 14.4496 4.61111 14.2023 4.61111 13.9445V2.27779C4.61111 2.01994 4.71354 1.77265 4.89587 1.59032C5.07819 1.408 5.32548 1.30557 5.58333 1.30557H11.4167ZM5.58333 0.333344C5.06763 0.333344 4.57305 0.538204 4.2084 0.902858C3.84375 1.26751 3.63889 1.76209 3.63889 2.27779V13.9445C3.63889 14.4602 3.84375 14.9547 4.2084 15.3194C4.57305 15.684 5.06763 15.8889 5.58333 15.8889H11.4167C11.9324 15.8889 12.4269 15.684 12.7916 15.3194C13.1562 14.9547 13.3611 14.4602 13.3611 13.9445V2.27779C13.3611 1.76209 13.1562 1.26751 12.7916 0.902858C12.4269 0.538204 11.9324 0.333344 11.4167 0.333344L5.58333 0.333344Z" fill="#2E2E2E"/>
<path d="M8.49999 13.9444C8.75784 13.9444 9.00513 13.842 9.18746 13.6597C9.36978 13.4774 9.47222 13.2301 9.47222 12.9722C9.47222 12.7144 9.36978 12.4671 9.18746 12.2848C9.00513 12.1024 8.75784 12 8.49999 12C8.24214 12 7.99486 12.1024 7.81253 12.2848C7.6302 12.4671 7.52777 12.7144 7.52777 12.9722C7.52777 13.2301 7.6302 13.4774 7.81253 13.6597C7.99486 13.842 8.24214 13.9444 8.49999 13.9444Z" fill="#2E2E2E"/>
</g>
<defs>
<clipPath id="clip0_5_169">
<rect width="15.5556" height="15.5556" fill="white" transform="translate(0.722229 0.333344)"/>
</clipPath>
</defs>
</svg>
