<svg width="18" height="17" viewBox="0 0 18 17" fill="none" xmlns="http://www.w3.org/2000/svg">
<g clip-path="url(#clip0_5_130)">
<path d="M5.81652 10.2569C6.18149 10.2569 6.53152 10.1119 6.7896 9.85381C7.04768 9.59573 7.19266 9.2457 7.19266 8.88072C7.19266 8.51575 7.04768 8.16572 6.7896 7.90764C6.53152 7.64956 6.18149 7.50458 5.81652 7.50458C5.45154 7.50458 5.10151 7.64956 4.84343 7.90764C4.58536 8.16572 4.44037 8.51575 4.44037 8.88072C4.44037 9.2457 4.58536 9.59573 4.84343 9.85381C5.10151 10.1119 5.45154 10.2569 5.81652 10.2569ZM10.633 8.88072C10.633 9.2457 10.488 9.59573 10.23 9.85381C9.97189 10.1119 9.62186 10.2569 9.25688 10.2569C8.89191 10.2569 8.54188 10.1119 8.2838 9.85381C8.02572 9.59573 7.88074 9.2457 7.88074 8.88072C7.88074 8.51575 8.02572 8.16572 8.2838 7.90764C8.54188 7.64956 8.89191 7.50458 9.25688 7.50458C9.62186 7.50458 9.97189 7.64956 10.23 7.90764C10.488 8.16572 10.633 8.51575 10.633 8.88072ZM12.6972 10.2569C13.0622 10.2569 13.4123 10.1119 13.6703 9.85381C13.9284 9.59573 14.0734 9.2457 14.0734 8.88072C14.0734 8.51575 13.9284 8.16572 13.6703 7.90764C13.4123 7.64956 13.0622 7.50458 12.6972 7.50458C12.3323 7.50458 11.9822 7.64956 11.7242 7.90764C11.4661 8.16572 11.3211 8.51575 11.3211 8.88072C11.3211 9.2457 11.4661 9.59573 11.7242 9.85381C11.9822 10.1119 12.3323 10.2569 12.6972 10.2569Z" fill="black"/>
<path fill-rule="evenodd" clip-rule="evenodd" d="M1 4.06422C1 3.51675 1.21748 2.99171 1.6046 2.6046C1.99171 2.21748 2.51675 2 3.06422 2H15.4495C15.997 2 16.522 2.21748 16.9092 2.6046C17.2963 2.99171 17.5138 3.51675 17.5138 4.06422V13.6972C17.5138 14.2447 17.2963 14.7698 16.9092 15.1569C16.522 15.544 15.997 15.7615 15.4495 15.7615H3.06422C2.51675 15.7615 1.99171 15.544 1.6046 15.1569C1.21748 14.7698 1 14.2447 1 13.6972L1 4.06422ZM3.06422 3.37615H15.4495C15.632 3.37615 15.807 3.44864 15.9361 3.57768C16.0651 3.70672 16.1376 3.88173 16.1376 4.06422V13.6972C16.1376 13.8797 16.0651 14.0547 15.9361 14.1838C15.807 14.3128 15.632 14.3853 15.4495 14.3853H3.06422C2.88173 14.3853 2.70672 14.3128 2.57768 14.1838C2.44864 14.0547 2.37615 13.8797 2.37615 13.6972V4.06422C2.37615 3.88173 2.44864 3.70672 2.57768 3.57768C2.70672 3.44864 2.88173 3.37615 3.06422 3.37615Z" fill="black"/>
</g>
<defs>
<clipPath id="clip0_5_130">
<rect width="16.5138" height="16.5138" fill="white" transform="translate(0.848633 0.385376)"/>
</clipPath>
</defs>
</svg>
