<svg width="13" height="12" viewBox="0 0 13 12" fill="none" xmlns="http://www.w3.org/2000/svg">
<path d="M6.5 7C6.59889 7 6.69556 6.97067 6.77778 6.91573C6.86001 6.86079 6.9241 6.7827 6.96194 6.69134C6.99978 6.59998 7.00968 6.49944 6.99039 6.40245C6.9711 6.30546 6.92348 6.21637 6.85355 6.14645C6.78363 6.07652 6.69454 6.0289 6.59754 6.00961C6.50055 5.99031 6.40002 6.00022 6.30866 6.03806C6.21729 6.0759 6.13921 6.13999 6.08426 6.22221C6.02932 6.30444 6 6.40111 6 6.5C6 6.63261 6.05268 6.75978 6.14645 6.85355C6.24021 6.94732 6.36739 7 6.5 7ZM9 7C9.09889 7 9.19556 6.97067 9.27778 6.91573C9.36001 6.86079 9.4241 6.7827 9.46194 6.69134C9.49978 6.59998 9.50968 6.49944 9.49039 6.40245C9.4711 6.30546 9.42348 6.21637 9.35355 6.14645C9.28363 6.07652 9.19454 6.0289 9.09754 6.00961C9.00055 5.99031 8.90002 6.00022 8.80866 6.03806C8.71729 6.0759 8.6392 6.13999 8.58426 6.22221C8.52932 6.30444 8.5 6.40111 8.5 6.5C8.5 6.63261 8.55268 6.75978 8.64645 6.85355C8.74021 6.94732 8.86739 7 9 7ZM6.5 9C6.59889 9 6.69556 8.97067 6.77778 8.91573C6.86001 8.86079 6.9241 8.7827 6.96194 8.69134C6.99978 8.59998 7.00968 8.49944 6.99039 8.40245C6.9711 8.30546 6.92348 8.21637 6.85355 8.14645C6.78363 8.07652 6.69454 8.0289 6.59754 8.00961C6.50055 7.99031 6.40002 8.00022 6.30866 8.03806C6.21729 8.0759 6.13921 8.13999 6.08426 8.22221C6.02932 8.30444 6 8.40111 6 8.5C6 8.63261 6.05268 8.75978 6.14645 8.85355C6.24021 8.94732 6.36739 9 6.5 9ZM9 9C9.09889 9 9.19556 8.97067 9.27778 8.91573C9.36001 8.86079 9.4241 8.7827 9.46194 8.69134C9.49978 8.59998 9.50968 8.49944 9.49039 8.40245C9.4711 8.30546 9.42348 8.21637 9.35355 8.14645C9.28363 8.07652 9.19454 8.0289 9.09754 8.00961C9.00055 7.99031 8.90002 8.00022 8.80866 8.03806C8.71729 8.0759 8.6392 8.13999 8.58426 8.22221C8.52932 8.30444 8.5 8.40111 8.5 8.5C8.5 8.63261 8.55268 8.75978 8.64645 8.85355C8.74021 8.94732 8.86739 9 9 9ZM4 7C4.09889 7 4.19556 6.97067 4.27778 6.91573C4.36001 6.86079 4.4241 6.7827 4.46194 6.69134C4.49978 6.59998 4.50969 6.49944 4.49039 6.40245C4.4711 6.30546 4.42348 6.21637 4.35355 6.14645C4.28363 6.07652 4.19454 6.0289 4.09754 6.00961C4.00055 5.99031 3.90002 6.00022 3.80866 6.03806C3.71729 6.0759 3.63921 6.13999 3.58426 6.22221C3.52932 6.30444 3.5 6.40111 3.5 6.5C3.5 6.63261 3.55268 6.75978 3.64645 6.85355C3.74021 6.94732 3.86739 7 4 7ZM10 2H9.5V1.5C9.5 1.36739 9.44732 1.24021 9.35355 1.14645C9.25978 1.05268 9.13261 1 9 1C8.86739 1 8.74021 1.05268 8.64645 1.14645C8.55268 1.24021 8.5 1.36739 8.5 1.5V2H4.5V1.5C4.5 1.36739 4.44732 1.24021 4.35355 1.14645C4.25978 1.05268 4.13261 1 4 1C3.86739 1 3.74021 1.05268 3.64645 1.14645C3.55268 1.24021 3.5 1.36739 3.5 1.5V2H3C2.60218 2 2.22064 2.15804 1.93934 2.43934C1.65804 2.72064 1.5 3.10217 1.5 3.5V9.5C1.5 9.89782 1.65804 10.2794 1.93934 10.5607C2.22064 10.842 2.60218 11 3 11H10C10.3978 11 10.7794 10.842 11.0607 10.5607C11.342 10.2794 11.5 9.89782 11.5 9.5V3.5C11.5 3.10217 11.342 2.72064 11.0607 2.43934C10.7794 2.15804 10.3978 2 10 2ZM10.5 9.5C10.5 9.63261 10.4473 9.75978 10.3536 9.85355C10.2598 9.94732 10.1326 10 10 10H3C2.86739 10 2.74021 9.94732 2.64645 9.85355C2.55268 9.75978 2.5 9.63261 2.5 9.5V5H10.5V9.5ZM10.5 4H2.5V3.5C2.5 3.36739 2.55268 3.24021 2.64645 3.14645C2.74021 3.05268 2.86739 3 3 3H10C10.1326 3 10.2598 3.05268 10.3536 3.14645C10.4473 3.24021 10.5 3.36739 10.5 3.5V4ZM4 9C4.09889 9 4.19556 8.97067 4.27778 8.91573C4.36001 8.86079 4.4241 8.7827 4.46194 8.69134C4.49978 8.59998 4.50969 8.49944 4.49039 8.40245C4.4711 8.30546 4.42348 8.21637 4.35355 8.14645C4.28363 8.07652 4.19454 8.0289 4.09754 8.00961C4.00055 7.99031 3.90002 8.00022 3.80866 8.03806C3.71729 8.0759 3.63921 8.13999 3.58426 8.22221C3.52932 8.30444 3.5 8.40111 3.5 8.5C3.5 8.63261 3.55268 8.75978 3.64645 8.85355C3.74021 8.94732 3.86739 9 4 9Z" fill="#2E2E2E"/>
</svg>
